<svg xmlns="http://www.w3.org/2000/svg" viewBox="0 0 500 500" enable-background="new 0 0 500 500">
  <style type="text/css">
    .st0{fill:#680B09;}
    .st1{fill:#C43D27;}
    .st2{fill:#207700;}
    .st3{fill:#239B02;}
    .st4{fill:#FFFFFF;}
    .st5{fill:#E8F9FC;}
    .st6{fill:#FCA12A;}
    .st7{fill:#E58613;}
    .st8{fill:#DB5435;}
    .st9{fill:#0E75AF;}
    .st10{fill:#1EA4C4;}
    .st11{fill:#AA1E0F;}
  </style>
  <path class="st0" d="M362.6 50.7h80.1v152.3h-80.1z"/>
  <path class="st1" d="M354.6 34.7h96.2v16h-96.2z"/>
  <path class="st2" d="M2 435.4h488.9v32.1h-488.9zm56.1-69.8l16-8 16.1 8v86.6l-16.1 8-16-8zm-56.1 0l16-8 16.1 8v86.6l-16.1 8-16-8z"/>
  <path class="st3" d="M18 395.3h56.1v16h-56.1z"/>
  <path class="st4" d="M114.2 227h328.6v224.4h-328.6z"/>
  <path class="st5" d="M114.2 227h328.6v224.4"/>
  <path class="st6" d="M258.4 435.4v-149.9c0-7.2-2.4-10.4-9.6-10.4h-74.5c-7.2 0-12 4-12 10.4v149.9h96.1z"/>
  <path class="st7" d="M258.4 363.2v-77.7c0-7.2-2.4-10.4-9.6-10.4h-74.5c-7.2 0-12 4-12 10.4"/>
  <path class="st8" d="M248.8 356c0 7.2-5.6 13.6-13.6 13.6-7.2 0-13.6-5.6-13.6-13.6 0-7.2 5.6-13.6 13.6-13.6 7.2 0 13.6 5.6 13.6 13.6z"/>
  <path class="st1" d="M244.8 346.4c5.6 4.8 4.8 13.6 0 19.2s-13.6 4.8-19.2 0"/>
  <path class="st9" d="M346.6 315.1h48.1v-29.7c0-7.2-8-10.4-15.2-10.4h-32.9v40.1z"/>
  <path class="st10" d="M338.6 315.1v-40.1h-36.1c-7.2 0-12 4-12 10.4v29.7h48.1z"/>
  <path class="st9" d="M338.6 323.2h-48.1v31.3c0 7.2 4.8 8.8 12 8.8h36.1v-40.1z"/>
  <path class="st10" d="M346.6 323.2v40.1h32.9c7.2 0 15.2-1.6 15.2-8.8v-31.3h-48.1z"/>
  <path class="st1" d="M498.1 227l-219.6-171.5-218.8 171.5z"/>
  <path class="st11" d="M498.1 227l-219.6-171.5-111.4 171.5z"/>
  <path class="st1" d="M121.4 178.9h315l-20.1-16h-274.9zm71.3-56.1h172.3l-10.4-8h-151.5z"/>
</svg>
