<svg xmlns="http://www.w3.org/2000/svg" width="200" height="200" viewBox="0 0 512 512" enable-background="new 0 0 512 512">
  <path d="M498.835 85.112c8.896 26.128.078 54.002-20.046 70.557l-38.905-114.191c26.037.821 50.042 17.519 58.951 43.634z" fill="#2BA5F7"/>
  <path fill="#F7B239" d="M478.79 155.669l5.666 16.633-68.46 23.315-7.737-22.729-34.75-101.986-7.75-22.729 68.459-23.315 5.666 16.62z"/>
  <path fill="#E09B2D" d="M484.456 172.302l-68.46 23.315-15.936-48.663 68.46-23.315z"/>
  <path d="M373.509 70.902l34.738 101.986-85.588 29.163c-8.583-25.164-32.419-43.269-60.488-43.269-35.272 0-63.875 28.603-63.875 63.888 0 7.203 1.198 14.132 3.4 20.606h-.013l-116.406 39.661-7.502-22.025-19.733-57.935-7.502-22.027 322.969-110.048z" fill="#F95428"/>
  <path fill="#F7B239" d="M372.636 450.907v36.249h-89.756v-36.249h71.286z"/>
  <path d="M354.166 450.907h-55.656l-39.362-124.064-.56-1.784-8.349-35.063-1.146-4.793c4.22.886 8.597 1.342 13.077 1.342 7.737 0 15.148-1.368 21.999-3.895 6.421-2.344 12.374-5.705 17.623-9.873l9.235 31.416 43.139 146.714z" fill="#F95428"/>
  <path fill="#E54728" d="M407.962 175.312l-320.099 108.347-15.936-48.662 320.101-108.348z"/>
  <path d="M322.659 202.051c2.201 6.473 3.4 13.403 3.4 20.619 0 20.306-9.482 38.411-24.266 50.094v.013c-10.876 8.623-24.643 13.767-39.622 13.767-4.481 0-8.857-.456-13.077-1.342-12.569-2.618-23.784-8.922-32.458-17.74-6.656-6.773-11.814-15.005-14.94-24.188-2.201-6.473-3.4-13.403-3.4-20.606 0-35.285 28.603-63.888 63.875-63.888 28.068.002 51.904 18.107 60.488 43.271zm-31.013 20.619c0-16.281-13.194-29.489-29.476-29.489s-29.476 13.207-29.476 29.489c0 16.268 13.194 29.476 29.476 29.476s29.476-13.208 29.476-29.476z" fill="#F7B239"/>
  <path d="M262.171 193.181c16.281 0 29.476 13.207 29.476 29.489 0 16.268-13.194 29.476-29.476 29.476s-29.476-13.207-29.476-29.476c0-16.282 13.194-29.489 29.476-29.489zm-3.582 131.879l-.547 1.719-39.388 124.129h-55.656l45.028-153.982 8.61-29.463c6.565 6.669 14.575 11.905 23.523 15.174 2.879 1.068 5.861 1.928 8.935 2.566l1.146 4.793 8.349 35.064z" fill="#F95428"/>
  <path fill="#F7B239" d="M234.284 450.907v36.249h-89.756v-36.249h74.126z"/>
  <path d="M301.793 272.777c-5.249 4.168-11.202 7.528-17.623 9.873-5.392 6.057-13.246 9.873-21.999 9.873-4.246 0-8.284-.899-11.931-2.527-3.881-1.706-7.307-4.233-10.081-7.359-8.948-3.269-16.959-8.505-23.523-15.174l-8.61 29.463c2.462 3.947 5.366 7.607 8.61 10.915 8.675 8.818 19.889 15.122 32.458 17.74 2.918.612 5.9 1.016 8.948 1.198.365.039.729.052 1.107.065 1.003.052 2.006.078 3.022.078 14.979 0 28.746-5.145 39.622-13.767v-.013c3.373-2.657 6.46-5.653 9.235-8.948l-9.235-31.417z" fill="#E54728"/>
  <path fill="#F7B239" d="M58.042 202.976l19.733 57.935-48.271 16.438-19.733-57.923z"/>
  <path fill="#E09B2D" d="M67.449 234.176l10.326 26.735-48.271 16.438-10.326-26.722z"/>
  <g fill="#fff">
    <path d="M449.712 160.057c-4.066 0-7.862-2.558-9.246-6.621l-19.988-58.665c-1.74-5.107.989-10.657 6.096-12.397 5.11-1.739 10.658.99 12.397 6.096l19.988 58.665c1.74 5.107-.989 10.657-6.096 12.397-1.044.357-2.107.525-3.151.525z"/>
    <circle cx="420.305" cy="65.816" r="9.769"/>
    <circle cx="483.489" cy="88.473" r="9.769"/>
  </g>
  <path d="M490.101 158.575c19.891-19.784 27.139-49.717 17.976-76.608s-33.18-46.171-61.011-49.694l-3.601-10.57c-1.74-5.106-7.286-7.837-12.397-6.096l-68.456 23.324c-2.453.836-4.473 2.61-5.616 4.936-1.142 2.325-1.316 5.009-.481 7.462l4.591 13.477-313.72 106.898c-5.106 1.74-7.836 7.29-6.097 12.397l4.354 12.781-39.022 13.297c-5.107 1.74-7.836 7.29-6.096 12.397l19.735 57.924c1.385 4.063 5.18 6.621 9.246 6.621 1.045 0 2.107-.169 3.151-.525l39.019-13.295 4.356 12.784c.836 2.453 2.612 4.473 4.936 5.616 1.355.667 2.83 1.003 4.311 1.003 1.062 0 2.127-.173 3.151-.522l107.819-36.738c2.598 5.203 5.788 10.059 9.491 14.475l-50.066 171.214h-11.143c-5.395 0-9.769 4.374-9.769 9.769v36.249c0 5.395 4.374 9.769 9.769 9.769h89.754c5.395 0 9.769-4.374 9.769-9.769v-36.249c0-5.395-4.374-9.769-9.769-9.769h-2.282l26.58-83.771 26.58 83.771h-2.282c-5.395 0-9.769 4.374-9.769 9.769v36.249c0 5.395 4.374 9.769 9.769 9.769h89.754c5.395 0 9.769-4.374 9.769-9.769v-36.249c0-5.395-4.374-9.769-9.769-9.769h-11.155l-48.565-165.168c14.094-13.425 22.906-32.349 22.906-53.304 0-4.894-.491-9.672-1.405-14.301l67.739-23.079 4.595 13.487c.836 2.453 2.61 4.473 4.937 5.616 1.355.666 2.83 1.003 4.311 1.003 1.062 0 2.127-.173 3.151-.522l68.456-23.325c5.107-1.74 7.836-7.29 6.096-12.397l-3.6-10.568zm-.517-70.308c5.65 16.582 2.83 34.734-6.825 48.758l-28.35-83.205c16.209 5.211 29.525 17.865 35.175 34.447zm-453.981 176.686l-13.434-39.431 29.773-10.145 13.435 39.431-29.774 10.145zm188.913 212.43h-70.216v-16.711h70.216v16.711zm-48.487-36.248l45.868-156.857c5.834 3.827 12.237 6.85 19.058 8.905l7.497 31.505-36.947 116.445h-35.476v.002zm186.838 36.248h-70.217v-16.711h70.215v16.711h.002zm-21.75-36.248h-35.455l-37.658-118.683-6.222-26.149.392.01c12.228 0 23.759-3.013 33.919-8.307l45.024 153.129zm-78.944-164.359c-29.838 0-54.113-24.275-54.113-54.113s24.275-54.113 54.113-54.113 54.113 24.275 54.113 54.113-24.275 54.113-54.113 54.113zm65.922-86.899c-12.085-24.198-37.087-40.863-65.922-40.863-40.611 0-73.65 33.039-73.65 73.65 0 4.891.49 9.668 1.404 14.295l-98.553 33.58-28.441-83.492 304.473-103.752 28.448 83.493-67.759 23.089zm94-6.655l-4.557-13.377-.033-.113-30.051-88.181-9.295-27.28 49.963-17.022 43.936 128.949-49.963 17.024zm-159.922.194c-21.641 0-39.247 17.606-39.247 39.247s17.606 39.247 39.247 39.247 39.247-17.606 39.247-39.247-17.606-39.247-39.247-39.247zm0 58.957c-10.868 0-19.709-8.841-19.709-19.709s8.841-19.71 19.709-19.71 19.71 8.841 19.71 19.71-8.842 19.709-19.71 19.709z" fill="#333"/>
</svg>
