<svg xmlns="http://www.w3.org/2000/svg" viewBox="0 0 512 512">
  <path fill="#b3b3b3" d="M434.4 110.7C401.2 46 334.4 0 256 0v101.3c55.5 0 100.6 43.7 100.6 99.2 0 54.8-45.5 102-100.6 102V512c70.6-73.6 152-154.5 187.5-251.4 17.8-48.5 14.5-104-9-150z"/>
  <path fill="#979797" d="M68.5 260.6c35.6 97 117 177.8 187.5 251.4V302.5c-55 0-100.6-47.2-100.6-102 0-55.5 45-99.2 100.6-99.2V0C177.6 0 110.8 46 77.6 110.7c-23.6 45.8-27 101.4-9 150z"/>
  <circle cx="256" cy="198.8" r="160" fill="#f0f0f0"/>
  <path fill="#0052b4" d="M129 101.4c-12.5 16.3-22 35.2-27.5 55.6h83.2L129 101.4zM410.6 157c-5.5-20.4-15-39.3-27.6-55.6L327.2 157h83.2zm-309 83.5c5.5 20.5 15 39.3 27.6 55.7l55.7-55.7h-83.5zm252-168.7c-16.4-12.5-35.3-22-55.8-27.5v83.2l55.7-55.7zm-195 254c16.4 12.5 35.3 22 55.8 27.5V270l-55.7 55.7zm55.8-281.5c-20.5 5.5-39.4 15-55.7 27.5l55.7 55.7V44.3zm83.4 309c20.5-5.6 39.4-15 55.7-27.6L297.7 270v83.3zm29.6-112.8l55.6 55.7c12.5-16.4 22-35.2 27.5-55.7h-83.2z"/>
  <g fill="#d80027">
    <path d="M414.6 178H277V40a161.5 161.5 0 0 0-42 0v138H97.5a161.4 161.4 0 0 0 0 41.6H235v137.8a161.5 161.5 0 0 0 42 0V219.6h137.6a161.5 161.5 0 0 0 0-41.7z"/>
    <path d="M297.7 240.5L369 312a161 161 0 0 0 9.5-10.4l-61-61h-19.8zm-83.4 0L143 312a161 161 0 0 0 10 9.3l61.3-61v-19.8zm0-83.5L143 85.6a161 161 0 0 0-9.5 10.3l61 61h19.8zm83.4 0L369 85.6a161 161 0 0 0-10-9.4l-61.3 61.2V157z"/>
  </g>
  <path fill="#c7c7c7" d="M256 21.7c-73.8 0-141.5 47.6-166.7 116.8-25.3 69.8-3 149.8 54 197 57.2 47.4 140.4 53.7 204 15.2 63.6-38.5 97.2-114.6 82.2-187.5-14.6-71.4-74-128-146-139.4a178.2 178.2 0 0 0-27.6-2M398.2 263c-30 67.2-105.4 105-177.4 88.6C166 339 120.5 295.8 105 241.4c-15.7-55.7 1.4-116.8 43.4-156.4C194.3 42 263 30.4 320 56.2c68.3 30.7 106 108 87.7 180.8-2.2 9-5.3 17.7-9 26.2-2.2 4.6 1.4-3.5 0 0"/>
</svg>
