<svg xmlns="http://www.w3.org/2000/svg" width="77.7" height="100" viewBox="383.2 200 77.7 100" enable-background="new 383.2 200 77.7 100"><style type="text/css">.st0{fill:#B3B3B3;} .st1{fill:#979797;} .st2{fill:#F0F0F0;} .st3{fill:#0052B4;} .st4{fill:#D80027;} .st5{fill:#C7C7C7;}</style><path class="st0" d="M456.8 221.6c-6.4-12.6-19.5-21.6-34.8-21.6v19.8c10.8 0 19.6 8.5 19.6 19.4 0 10.7-8.9 19.9-19.6 19.9v40.9c13.8-14.4 29.7-30.2 36.6-49.1 3.5-9.5 2.8-20.3-1.8-29.3z"/><path class="st1" d="M385.4 250.9c7 18.9 22.9 34.7 36.6 49.1v-40.9c-10.7 0-19.6-9.2-19.6-19.9 0-10.8 8.8-19.4 19.6-19.4v-19.8c-15.3 0-28.4 9-34.8 21.6-4.7 9-5.3 19.8-1.8 29.3z"/><circle class="st2" cx="422" cy="238.8" r="31.2"/><path class="st3" d="M451.3 227.9h-58.6c-1.3 3.4-2 7.1-2 10.9s.7 7.5 2 10.9h58.6c1.3-3.4 2-7 2-10.9s-.7-7.5-2-10.9z"/><path class="st4" d="M422 207.6c-9.5 0-18 4.2-23.7 10.9h47.4c-5.7-6.7-14.2-10.9-23.7-10.9zm23.7 51.6h-47.4c5.7 6.7 14.2 10.9 23.7 10.9s18-4.2 23.7-10.9z"/><path class="st5" d="M422 204.2c-14.4 0-27.6 9.3-32.6 22.8-4.9 13.6-.6 29.3 10.5 38.5 11.2 9.3 27.4 10.5 39.8 3 12.4-7.5 19-22.4 16.1-36.6-2.9-13.9-14.5-25-28.5-27.2-1.7-.3-3.5-.5-5.3-.5m27.8 47.2c-5.9 13.1-20.6 20.5-34.6 17.3-10.7-2.5-19.6-10.9-22.6-21.5-3.1-10.9.3-22.8 8.5-30.5 9-8.4 22.4-10.7 33.5-5.6 13.3 6 20.7 21.1 17.1 35.3-.5 1.6-1.1 3.3-1.9 5-.4.9.3-.7 0 0"/></svg>