<svg xmlns="http://www.w3.org/2000/svg" viewBox="0 0 512 512">
  <path fill="#b3b3b3" d="M434.4 110.7C401.2 46 334.4 0 256 0v101.3c55.5 0 100.6 43.7 100.6 99.2 0 54.8-45.5 102-100.6 102V512c70.6-73.6 152-154.5 187.5-251.4 17.8-48.5 14.5-104-9-150z"/>
  <path fill="#979797" d="M68.5 260.6c35.6 97 117 177.8 187.5 251.4V302.5c-55 0-100.6-47.2-100.6-102 0-55.5 45-99.2 100.6-99.2V0C177.6 0 110.8 46 77.6 110.7c-23.6 45.8-27 101.4-9 150z"/>
  <circle cx="256" cy="198.8" r="160" fill="#f0f0f0"/>
  <path fill="#0052b4" d="M406 143H106c-6.5 17.5-10 36.2-10 55.8s3.5 38.3 10 55.6h300c6.5-17.3 10-36 10-55.6s-3.5-38.3-10-55.7z"/>
  <path fill="#d80027" d="M256 38.8c-48.5 0-92 21.6-121.3 55.6h242.6C348 60.4 304.5 38.8 256 38.8zM377.3 303H134.7c29.3 34.3 72.8 56 121.3 56s92-21.6 121.3-55.7z"/>
  <path fill="#c7c7c7" d="M256 21.7c-73.8 0-141.5 47.6-166.7 116.8-25.3 69.8-3 149.8 54 197 57.2 47.4 140.4 53.7 204 15.2 63.6-38.5 97.2-114.6 82.2-187.5-14.6-71.4-74-128-146-139.4a178.2 178.2 0 0 0-27.6-2M398.2 263c-30 67.2-105.4 105-177.4 88.6C166 339 120.5 295.8 105 241.4c-15.7-55.7 1.4-116.8 43.4-156.4C194.3 42 263 30.4 320 56.2c68.3 30.7 106 108 87.7 180.8-2.2 9-5.3 17.7-9 26.2-2.2 4.6 1.4-3.5 0 0"/>
</svg>
