<svg version="1.1" id="Layer_1" xmlns="http://www.w3.org/2000/svg" xmlns:xlink="http://www.w3.org/1999/xlink" x="0px" y="0px" width="77.7px" height="100px" viewBox="383.2 200 77.7 100" style="enable-background:new 383.2 200 77.7 100;" xml:space="preserve">
	<style type="text/css">
	  .st0{fill:#B3B3B3;}
	  .st1{fill:#979797;}
	  .st2{fill:#F0F0F0;}
	  .st3{fill:#0052B4;}
	  .st4{fill:#D80027;}
	  .st5{fill:#C7C7C7;}
	</style>
	<g>
	  <path class="st0" d="M456.8,221.6C450.4,209,437.3,200,422,200v19.8c10.8,0,19.6,8.5,19.6,19.4c0,10.7-8.9,19.9-19.6,19.9V300 c13.8-14.4,29.7-30.2,36.6-49.1C462.1,241.4,461.4,230.6,456.8,221.6L456.8,221.6z" />
	  <path class="st1" d="M385.4,250.9c7,18.9,22.9,34.7,36.6,49.1v-40.9c-10.7,0-19.6-9.2-19.6-19.9c0-10.8,8.8-19.4,19.6-19.4V200 c-15.3,0-28.4,9-34.8,21.6C382.5,230.6,381.9,241.4,385.4,250.9L385.4,250.9z" />
	  <circle class="st2" cx="422" cy="238.8" r="31.2" />
	  <path class="st3" d="M397.2,219.8c-2.4,3.2-4.3,6.9-5.4,10.9h16.2L397.2,219.8z M452.2,230.7c-1.1-4-2.9-7.7-5.4-10.9l-10.9,10.9 H452.2L452.2,230.7z M391.8,247c1.1,4,2.9,7.7,5.4,10.9l10.9-10.9H391.8L391.8,247z M441.1,214c-3.2-2.4-6.9-4.3-10.9-5.4v16.2 L441.1,214L441.1,214z M403,263.6c3.2,2.4,6.9,4.3,10.9,5.4v-16.3L403,263.6L403,263.6z M413.9,208.7c-4,1.1-7.7,2.9-10.9,5.4 l10.9,10.9V208.7L413.9,208.7z M430.2,269c4-1.1,7.7-2.9,10.9-5.4l-10.9-10.9L430.2,269L430.2,269z M435.9,247l10.9,10.9 c2.4-3.2,4.3-6.9,5.4-10.9H435.9L435.9,247z" />
	  <g>
	    <path class="st4" d="M453,234.8h-26.9v-27c-2.7-0.4-5.5-0.4-8.2,0v27H391c-0.4,2.7-0.4,5.4,0,8.1h26.9v26.9c2.7,0.4,5.5,0.4,8.2,0 v-26.9H453C453.3,240.2,453.3,237.4,453,234.8L453,234.8z" />
	    <path class="st4" d="M430.1,247l13.9,14c0.6-0.6,1.3-1.3,1.9-2L434,247L430.1,247L430.1,247z M413.9,247l-13.9,14 c0.6,0.6,1.3,1.2,2,1.8l12-11.9V247L413.9,247z M413.9,230.7l-13.9-13.9c-0.6,0.6-1.3,1.3-1.9,2l11.9,11.9L413.9,230.7 L413.9,230.7z M430.1,230.7l13.9-13.9c-0.6-0.6-1.3-1.3-2-1.8l-12,12V230.7z" />
	  </g>
	  <path class="st5" d="M422,204.2c-14.4,0-27.6,9.3-32.6,22.8c-4.9,13.6-0.6,29.3,10.5,38.5c11.2,9.3,27.4,10.5,39.8,3 c12.4-7.5,19-22.4,16.1-36.6c-2.9-13.9-14.5-25-28.5-27.2C425.6,204.4,423.8,204.2,422,204.2 M449.8,251.4 c-5.9,13.1-20.6,20.5-34.6,17.3c-10.7-2.5-19.6-10.9-22.6-21.5c-3.1-10.9,0.3-22.8,8.5-30.5c9-8.4,22.4-10.7,33.5-5.6 c13.3,6,20.7,21.1,17.1,35.3C451.2,248,450.6,249.7,449.8,251.4C449.4,252.3,450.1,250.7,449.8,251.4" />
	</g>
</svg>
