<svg version="1.1" id="Layer_1" xmlns="http://www.w3.org/2000/svg" xmlns:xlink="http://www.w3.org/1999/xlink" x="0px" y="0px" width="100px" height="60px" viewBox="-174 206 150 90.1" style="enable-background:new -174 206 150 90.1;" xml:space="preserve">
<style type="text/css">
  .st0{fill:#02befc;}
  .st1{fill:#fb2a2a;}
  .st2{fill:#071C2C;}
</style>
<g>
  <g>
    <path class="st0" d="M-35.3,250.3v-31.5c0-5.4-4.4-9.9-9.9-9.9h-70.3c-5.4,0-9.9,4.4-9.9,9.9v34.9c0,5.4,4.4,9.9,9.9,9.9h69 c3.5,2.8,8,4.5,12.8,4.5c2.3,0,4.6-0.4,6.7-1.1C-32,263.1-35.3,257.1-35.3,250.3z" />
  </g>
  <g>
    <path class="st1" d="M-82.5,234h-70.3c-5.4,0-9.9,4.4-9.9,9.9v31.5c0,6.8-3.3,12.8-8.4,16.6c2.1,0.7,4.3,1.1,6.7,1.1 c4.8,0,9.3-1.7,12.8-4.5h69c5.4,0,9.9-4.4,9.9-9.9v-34.9C-72.7,238.4-77.1,234-82.5,234z" />
  </g>
  <path class="st2" d="M-51.9,220.2h-50.4c-1.6,0-3,1.3-3,3s1.3,3,3,3h50.4c1.6,0,3-1.3,3-3S-50.3,220.2-51.9,220.2z M-146.1,251.2 h50.4c1.6,0,3-1.3,3-3s-1.3-3-3-3h-50.4c-1.6,0-3,1.3-3,3S-147.7,251.2-146.1,251.2z M-92.5,262.7h-53.6c-1.6,0-3,1.3-3,3 c0,1.6,1.3,3,3,3h53.6c1.6,0,3-1.3,3-3C-89.6,264-90.9,262.7-92.5,262.7z M-95.7,271.4h-50.4c-1.6,0-3,1.3-3,3c0,1.6,1.3,3,3,3 h50.4c1.6,0,3-1.3,3-3C-92.7,272.7-94,271.4-95.7,271.4z M-25.2,264.5c-4.6-3.4-7.2-8.6-7.2-14.2v-31.5c0-7.1-5.7-12.8-12.8-12.8 h-70.3c-7.1,0-12.8,5.7-12.8,12.8V231h-24.5c-7.1,0-12.8,5.7-12.8,12.8v31.5c0,5.7-2.6,10.9-7.2,14.2c-0.9,0.7-1.3,1.7-1.2,2.8 c0.2,1.1,0.9,2,2,2.3c2.5,0.8,5,1.3,7.6,1.3c5,0,9.8-1.5,13.8-4.5h68c7.1,0,12.8-5.7,12.8-12.8v-12.3h22.2c4,2.9,8.8,4.5,13.8,4.5 c2.6,0,5.2-0.4,7.6-1.3c1-0.4,1.8-1.3,2-2.3C-23.9,266.3-24.3,265.2-25.2,264.5z M-75.6,278.8c0,3.8-3.1,6.9-6.9,6.9h-69 c-0.7,0-1.3,0.2-1.8,0.6c-3.2,2.5-7,3.8-11,3.8c-0.2,0-0.4,0-0.5,0c3.3-4.2,5.2-9.4,5.2-14.8v-31.5c0-3.8,3.1-6.9,6.9-6.9h70.3 c3.8,0,6.9,3.1,6.9,6.9L-75.6,278.8L-75.6,278.8z M-33.6,265.1c-4,0-7.8-1.3-11-3.8c-0.5-0.4-1.2-0.6-1.8-0.6h-23.2v-8.4h17.8 c1.6,0,3-1.3,3-3s-1.3-3-3-3h-17.8v-2.5c0-0.1,0-0.2,0-0.3h17.8c1.6,0,3-1.3,3-3s-1.3-3-3-3h-19.4c-0.6-1-1.3-2-2.1-2.8h21.5 c1.6,0,3-1.3,3-3s-1.3-3-3-3H-109c-1.3,0-2.5,0.9-2.8,2.1h-10.5v-12.3c0-3.8,3.1-6.9,6.9-6.9h70.3c3.8,0,6.9,3.1,6.9,6.9v31.5 c0,5.4,1.9,10.6,5.2,14.8C-33.3,265.1-33.5,265.1-33.6,265.1z M-89,254h-57.1c-1.6,0-3,1.3-3,3c0,1.6,1.3,3,3,3H-89 c1.6,0,3-1.3,3-3C-86,255.3-87.3,254-89,254z" />
</g>
</svg>
