<svg xmlns="http://www.w3.org/2000/svg" width="100" height="60" viewBox="-174 206 150 90.1" enable-background="new -174 206 150 90.1">
  <style type="text/css">
    .st0{fill:#02befc;}
    .st1{fill:#fb2a2a;}
    .st2{fill:#071C2C;}
  </style>
  <path class="st0" d="M-35.3 250.3v-31.5c0-5.4-4.4-9.9-9.9-9.9h-70.3c-5.4 0-9.9 4.4-9.9 9.9v34.9c0 5.4 4.4 9.9 9.9 9.9h69c3.5 2.8 8 4.5 12.8 4.5 2.3 0 4.6-.4 6.7-1.1-5-3.9-8.3-9.9-8.3-16.7z"/>
  <path class="st1" d="M-82.5 234h-70.3c-5.4 0-9.9 4.4-9.9 9.9v31.5c0 6.8-3.3 12.8-8.4 16.6 2.1.7 4.3 1.1 6.7 1.1 4.8 0 9.3-1.7 12.8-4.5h69c5.4 0 9.9-4.4 9.9-9.9v-34.9c0-5.4-4.4-9.8-9.8-9.8z"/>
  <path class="st2" d="M-51.9 220.2h-50.4c-1.6 0-3 1.3-3 3s1.3 3 3 3h50.4c1.6 0 3-1.3 3-3s-1.4-3-3-3zm-94.2 31h50.4c1.6 0 3-1.3 3-3s-1.3-3-3-3h-50.4c-1.6 0-3 1.3-3 3s1.4 3 3 3zm53.6 11.5h-53.6c-1.6 0-3 1.3-3 3 0 1.6 1.3 3 3 3h53.6c1.6 0 3-1.3 3-3-.1-1.7-1.4-3-3-3zm-3.2 8.7h-50.4c-1.6 0-3 1.3-3 3 0 1.6 1.3 3 3 3h50.4c1.6 0 3-1.3 3-3s-1.3-3-3-3zm70.5-6.9c-4.6-3.4-7.2-8.6-7.2-14.2v-31.5c0-7.1-5.7-12.8-12.8-12.8h-70.3c-7.1 0-12.8 5.7-12.8 12.8v12.2h-24.5c-7.1 0-12.8 5.7-12.8 12.8v31.5c0 5.7-2.6 10.9-7.2 14.2-.9.7-1.3 1.7-1.2 2.8.2 1.1.9 2 2 2.3 2.5.8 5 1.3 7.6 1.3 5 0 9.8-1.5 13.8-4.5h68c7.1 0 12.8-5.7 12.8-12.8v-12.3h22.2c4 2.9 8.8 4.5 13.8 4.5 2.6 0 5.2-.4 7.6-1.3 1-.4 1.8-1.3 2-2.3.3-.9-.1-2-1-2.7zm-50.4 14.3c0 3.8-3.1 6.9-6.9 6.9h-69c-.7 0-1.3.2-1.8.6-3.2 2.5-7 3.8-11 3.8h-.5c3.3-4.2 5.2-9.4 5.2-14.8v-31.5c0-3.8 3.1-6.9 6.9-6.9h70.3c3.8 0 6.9 3.1 6.9 6.9l-.1 35zm42-13.7c-4 0-7.8-1.3-11-3.8-.5-.4-1.2-.6-1.8-.6h-23.2v-8.4h17.8c1.6 0 3-1.3 3-3s-1.3-3-3-3h-17.8v-2.8h17.8c1.6 0 3-1.3 3-3s-1.3-3-3-3h-19.4c-.6-1-1.3-2-2.1-2.8h21.5c1.6 0 3-1.3 3-3s-1.3-3-3-3h-57.2c-1.3 0-2.5.9-2.8 2.1h-10.5v-12.3c0-3.8 3.1-6.9 6.9-6.9h70.3c3.8 0 6.9 3.1 6.9 6.9v31.5c0 5.4 1.9 10.6 5.2 14.8-.3.3-.5.3-.6.3zm-55.4-11.1h-57.1c-1.6 0-3 1.3-3 3 0 1.6 1.3 3 3 3h57.1c1.6 0 3-1.3 3-3s-1.3-3-3-3z"/>
</svg>
